<?xml version="1.0" encoding="UTF-8" standalone="no"?>
<!-- Created with Inkscape (http://www.inkscape.org/) -->

<svg
   xmlns:dc="http://purl.org/dc/elements/1.1/"
   xmlns:cc="http://creativecommons.org/ns#"
   xmlns:rdf="http://www.w3.org/1999/02/22-rdf-syntax-ns#"
   xmlns:svg="http://www.w3.org/2000/svg"
   xmlns="http://www.w3.org/2000/svg"
   xmlns:sodipodi="http://sodipodi.sourceforge.net/DTD/sodipodi-0.dtd"
   xmlns:inkscape="http://www.inkscape.org/namespaces/inkscape"
   width="561"
   height="181.00002"
   id="svg2"
   version="1.1"
   inkscape:version="0.48.2 r9819"
   sodipodi:docname="logo_mockup_9.svg"
   inkscape:export-filename="/Users/avetis/code/commonplay/media/logo/logo_mockup_9.png"
   inkscape:export-xdpi="200"
   inkscape:export-ydpi="200">
  <defs
     id="defs4" />
  <sodipodi:namedview
     id="base"
     pagecolor="#ffffff"
     bordercolor="#666666"
     borderopacity="1.0"
     inkscape:pageopacity="0.0"
     inkscape:pageshadow="2"
     inkscape:zoom="1.6969697"
     inkscape:cx="280.5"
     inkscape:cy="88.000012"
     inkscape:document-units="px"
     inkscape:current-layer="layer1"
     showgrid="true"
     showguides="false"
     inkscape:guide-bbox="true"
     fit-margin-top="0"
     fit-margin-left="0"
     fit-margin-right="0"
     fit-margin-bottom="0"
     inkscape:window-width="1437"
     inkscape:window-height="856"
     inkscape:window-x="4"
     inkscape:window-y="0"
     inkscape:window-maximized="0"
     inkscape:snap-global="true">
    <inkscape:grid
       type="xygrid"
       id="grid2985"
       empspacing="5"
       visible="true"
       enabled="true"
       snapvisiblegridlinesonly="true" />
    <sodipodi:guide
       orientation="1,0"
       position="158.25436,53.750664"
       id="guide3052" />
    <sodipodi:guide
       orientation="0,1"
       position="234,163"
       id="guide3093" />
    <sodipodi:guide
       orientation="0,1"
       position="247.34375,13.312517"
       id="guide3095" />
    <sodipodi:guide
       orientation="0,1"
       position="255,93.000013"
       id="guide3125" />
  </sodipodi:namedview>
  <metadata
     id="metadata7">
    <rdf:RDF>
      <cc:Work
         rdf:about="">
        <dc:format>image/svg+xml</dc:format>
        <dc:type
           rdf:resource="http://purl.org/dc/dcmitype/StillImage" />
        <dc:title></dc:title>
      </cc:Work>
    </rdf:RDF>
  </metadata>
  <g
     inkscape:label="Layer 1"
     inkscape:groupmode="layer"
     id="layer1"
     transform="translate(-150,-74.37497)">
    <g
       id="g5317"
       style="fill:#552055;fill-opacity:1"
       transform="translate(0,-1)">
      <g
         id="g5349"
         style="fill:#6c3c70;fill-opacity:1">
        <path
           sodipodi:nodetypes="ccccccccccccccc"
           inkscape:connector-curvature="0"
           id="path4114"
           d="m 270,213.37496 c 10,0.0128 15,-4.99997 15,-14.99997 l 0,-85 c 0,-10 -5,-15 -15,-15 l -5,-1e-5 c -6.49857,-10e-6 -12,-7.00001 -13,-12.00001 -1,-5 0,-7 3,-11 -4,1 -4,1 -8,3 -3.59239,1.7962 -9,5 -15,16 -2,3 -3,4 -7,4 l -40,2e-5 c -10,0 -15,5.01279 -15,14.99997 l 0,85.00003 c 0,10 5,15 15,15 z"
           style="fill:#6c3c70;fill-opacity:1;stroke:none" />
        <path
           style="fill:#6c3c70;fill-opacity:1;stroke:none"
           d="m 325,172.37497 c -3,0 -5,2.16495 -5,5 l 0,60 c 0,5 3e-5,5 5,5 l 5,0 c 5,0 5,0 5,-5 l 0,-15 10,0 c 15,2e-5 25,-9.99998 25,-25 0,-14.99998 -10,-24.99998 -25,-25 z m 10,15 10,0 c 13,2e-5 13,20.00002 0,20 l -10,0 z"
           id="path3179"
           inkscape:connector-curvature="0"
           sodipodi:nodetypes="cccccccccccccccc" />
        <path
           sodipodi:nodetypes="cccccccccccc"
           inkscape:connector-curvature="0"
           id="path3193"
           d="m 380,172.37497 c -3,-1e-5 -5,2.16495 -5,5 l 0,59 c 0,5 1.00003,6 6,6 l 39,2e-5 c 5,0 5,0 5,-5 l 0,-6 c 0,-5 0,-5 -5,-5 l -29,0 0,-49.00002 c 0,-2.99998 -2,-4.99998 -5,-4.99998 z"
           style="fill:#6c3c70;fill-opacity:1;stroke:none" />
        <path
           style="fill:#6c3c70;fill-opacity:1;stroke:none"
           d="m 453,177.37499 -20,50 c -4,10 -4,10 -1,12 3,2 8,3 10,3 4,0 4,0 6,-5.00002 l 4,-10 20,0 4,10.00002 c 2,5 2,5 6,4.99998 2,2e-5 7,-0.99998 10,-3 3,-1.99998 3,-1.99998 -1,-11.99998 l -20,-50 c -2,-5 -4,-5 -9,-5.00002 -5,2e-5 -7,2e-5 -9,5.00002 z m 9,19.99998 6,15.00002 -12,0 z"
           id="path3195"
           inkscape:connector-curvature="0"
           sodipodi:nodetypes="cccccccccccccccccc" />
        <path
           sodipodi:nodetypes="ccccccccccccccc"
           inkscape:connector-curvature="0"
           id="path4059"
           d="m 506,237.37497 0,-23.99998 -22,-30 c -3,-4 0,-6 3,-9 3,-3 5,-6 9,0 l 14,19 c 3,4 5,4 8,0 l 14,-19 c 4,-6 6,-3 9,-2e-5 3,3.00002 6,5.00002 3,9.00002 l -22,30 0,23.99998 c 0,5.00002 0,5.00002 -5,5.00002 l -6,0 c -5,0 -5,0 -5,-5.00002 z"
           style="fill:#6c3c70;fill-opacity:1;stroke:none" />
      </g>
    </g>
    <g
       id="g5308"
       style="fill:#a0a3b7;fill-opacity:1">
      <path
         sodipodi:nodetypes="ccccccccccccccc"
         inkscape:connector-curvature="0"
         id="rect3043"
         d="m 165,117.375 c -10,-0.0128 -15,4.99997 -15,14.99997 l 0,85 c 0,10 5,15 15,15 l 5,1e-5 c 6.49857,1e-5 12,7.00001 13,12.00001 1,5 0,7 -3,11 4,-1 4,-1 8,-3 3.59239,-1.7962 9,-5 15,-16 2,-3 3,-4 7,-4 l 39,-2e-5 c 10,0 15,-5.01279 15,-14.99997 l 0,-85.00003 c 0,-10 -5,-15 -15,-15 z"
         style="fill:#a0a3b7;fill-opacity:1;stroke:none" />
      <path
         sodipodi:nodetypes="ssssssssss"
         inkscape:connector-curvature="0"
         style="fill:#a0a3b7;fill-opacity:1;stroke:none"
         d="m 407.5,90.375003 c -19.32997,0 -32.5,15.670037 -32.5,34.999997 0,19.32997 13.17003,35 32.5,35 19.32997,0 32.5,-15.67003 32.5,-35 0,-19.32996 -13.17003,-34.999997 -32.5,-34.999997 z m 0,14.999997 c 11.04569,0 17.5,8.95431 17.5,20 0,11.0457 -6.45431,20 -17.5,20 -11.04569,0 -17.5,-8.9543 -17.5,-20 0,-11.04569 6.45431,-20 17.5,-20 z"
         id="path3154" />
      <path
         sodipodi:nodetypes="ccccccccccccccccccccc"
         inkscape:connector-curvature="0"
         id="path3157"
         d="m 445,97.374972 c 0,-2.83505 2,-5 5,-5 2,1.5e-5 2,1.5e-5 10,7.999998 l 13,13.00002 c 4,4 5,4 9,0 l 13,-13 c 8,-8.000003 8,-8.000003 10,-8.000018 3,0 5,2 4.99997,5 l 0,57.999998 c 3e-5,5 3e-5,5 -4.99997,5 l -6,0 c -5,0 -5,0 -5.00003,-5 l 0,-34 -11.49997,12 c -3.5,4.00002 -5.5,4.00002 -9.5,2e-5 l -12.00003,-12.00002 0,34 c 3e-5,5 3e-5,5 -4.99997,5 l -6.00003,0 c -4.99997,0 -4.99997,0 -4.99997,-5 z"
         style="fill:#a0a3b7;fill-opacity:1;stroke:none" />
      <path
         sodipodi:nodetypes="ccccccccccccccccccccc"
         inkscape:connector-curvature="0"
         id="path3163"
         d="m 656,97.374972 c 0,-2.83505 2,-5 5,-5 l 3,0 c 3,1.5e-5 6,1.5e-5 13,10.000018 l 9,14 9,13.99998 0,-32.999998 c 0,-4.999985 0,-4.999985 5,-4.999985 l 6,0 c 5,0 5,0 5,4.999985 l 0,57.999998 c 0,3 -2,5 -5,5 l -3,2e-5 c -4,0 -7,0 -11,-6 l -10,-15 -10.00003,-16.00002 3e-5,32 c 0,5 0,5 -5.00003,5 l -5.99997,0 c -5,0 -5,0 -5.00003,-5 z"
         style="fill:#a0a3b7;fill-opacity:1;stroke:none" />
      <path
         sodipodi:nodetypes="ssscccssscccs"
         inkscape:connector-curvature="0"
         id="path3165"
         d="m 352,90.375003 c -19.32997,0 -35,15.670037 -35,34.999997 0,19.32997 15.67003,35 35,35 8.8701,0 16.95672,-3.31123 23.125,-8.75 L 369,139.37497 c -1,-1 -2,-1 -3,0 -3.60533,3.62316 -8.49277,6.00003 -14,6.00003 -11.04569,0 -20,-8.9543 -20,-20 0,-11.04569 8.95431,-20 20,-20 5.51108,0 10.39427,2.37278 14,5.99997 1,1 2,1 3,0 L 375.125,99.125 C 368.95672,93.686234 360.8701,90.375003 352,90.375003 z"
         style="fill:#a0a3b7;fill-opacity:1;stroke:none" />
      <path
         style="fill:#a0a3b7;fill-opacity:1;stroke:none"
         d="m 516,97.374972 c 0,-2.83505 2,-5 5,-5 2,1.5e-5 2,1.5e-5 10,7.999998 l 13,13.00002 c 4,4 5,4 9,0 l 13,-13 c 8,-8.000003 8,-8.000003 10,-8.000018 3,0 5,2 4.99997,5 l 0,57.999998 c 3e-5,5 3e-5,5 -4.99997,5 l -6,0 c -5,0 -5,0 -5.00003,-5 l 0,-34 -11.49997,12 c -3.5,4.00002 -5.5,4.00002 -9.5,2e-5 l -12.00003,-12.00002 0,34 c 3e-5,5 3e-5,5 -4.99997,5 l -6.00003,0 c -4.99997,0 -4.99997,0 -4.99997,-5 z"
         id="path4089"
         inkscape:connector-curvature="0"
         sodipodi:nodetypes="ccccccccccccccccccccc" />
      <path
         id="path4091"
         d="m 618.5,90.375003 c -19.32997,0 -32.5,15.670037 -32.5,34.999997 0,19.32997 13.17003,35 32.5,35 19.32997,0 32.5,-15.67003 32.5,-35 0,-19.32996 -13.17003,-34.999997 -32.5,-34.999997 z m 0,14.999997 c 11.04569,0 17.5,8.95431 17.5,20 0,11.0457 -6.45431,20 -17.5,20 -11.04569,0 -17.5,-8.9543 -17.5,-20 0,-11.04569 6.45431,-20 17.5,-20 z"
         style="fill:#a0a3b7;fill-opacity:1;stroke:none"
         inkscape:connector-curvature="0"
         sodipodi:nodetypes="ssssssssss" />
    </g>
    <flowRoot
       xml:space="preserve"
       id="flowRoot2987"
       style="font-size:72px;font-style:normal;font-variant:normal;font-weight:normal;font-stretch:normal;fill:#000000;fill-opacity:1;stroke:none;font-family:Arial;-inkscape-font-specification:Arial"><flowRegion
         id="flowRegion2989"><rect
           id="rect2991"
           width="228.57143"
           height="104.28571"
           x="105.71429"
           y="290.93362"
           style="fill:#000000;fill-opacity:1" /></flowRegion><flowPara
         id="flowPara2993" /></flowRoot>    <flowRoot
       xml:space="preserve"
       id="flowRoot2995"
       style="font-size:72px;font-style:normal;font-variant:normal;font-weight:normal;font-stretch:normal;fill:#000000;fill-opacity:1;stroke:none;font-family:Arial;-inkscape-font-specification:Arial"><flowRegion
         id="flowRegion2997"><rect
           id="rect2999"
           width="262.85715"
           height="141.42857"
           x="58.57143"
           y="292.36218"
           style="fill:#000000;fill-opacity:1" /></flowRegion><flowPara
         id="flowPara3001">COMMON</flowPara></flowRoot>    <g
       transform="translate(79.31625,-231.14286)"
       style="font-size:72px;font-style:normal;font-variant:normal;font-weight:normal;font-stretch:normal;fill:#000000;fill-opacity:1;stroke:none;font-family:Arial;-inkscape-font-specification:Arial"
       id="flowRoot3003" />
    <text
       xml:space="preserve"
       style="font-size:72px;font-style:normal;font-variant:normal;font-weight:normal;font-stretch:normal;fill:#000000;fill-opacity:1;stroke:none;font-family:Fredoka One;-inkscape-font-specification:Fredoka One"
       x="137.14285"
       y="669.50507"
       id="text3013"><tspan
         sodipodi:role="line"
         id="tspan3015"
         x="137.14285"
         y="669.50507" /></text>
    <path
       style="fill:#ffffff;fill-opacity:1;stroke:none"
       d="m 194,160.37497 0,30.00002 c 0,5 0,5 5,2 l 20,-12 c 10,-6 10,-4 0,-10.00002 l -20,-12 c -5,-2.99998 -5,-2.99998 -5,2 z"
       id="path3050"
       inkscape:connector-curvature="0"
       sodipodi:nodetypes="ccccccc" />
    <text
       xml:space="preserve"
       style="font-size:96px;font-style:normal;font-variant:normal;font-weight:normal;font-stretch:normal;fill:#000000;fill-opacity:1;stroke:none;font-family:Fredoka One;-inkscape-font-specification:Fredoka One"
       x="178.90625"
       y="196.24997"
       id="text3097"
       transform="translate(145,72.375003)"><tspan
         sodipodi:role="line"
         id="tspan3099"
         x="178.90625"
         y="196.24997" /></text>
  </g>
</svg>
